<svg xmlns="http://www.w3.org/2000/svg" viewBox="0 0 500 500"><g id="freepik--background-simple--inject-65"><path d="M407.67,107.23S348.31,41,291.54,30.68,173.7,44.44,135.85,94.33,12,255.18,22.31,303.35s78.27,134.19,178.91,161.72,244.29-49.89,276.12-126.45S460.14,175.19,407.67,107.23Z" style="fill:#B186FF"></path><path d="M407.67,107.23S348.31,41,291.54,30.68,173.7,44.44,135.85,94.33,12,255.18,22.31,303.35s78.27,134.19,178.91,161.72,244.29-49.89,276.12-126.45S460.14,175.19,407.67,107.23Z" style="fill:#fff;opacity:0.7000000000000001"></path></g><g id="freepik--Bricks--inject-65"><rect x="306.57" y="111.76" width="78.49" height="33.39" rx="5.75" style="opacity:0.13"></rect><rect x="347.02" y="148.07" width="78.49" height="33.39" rx="5.75" style="opacity:0.13"></rect><rect x="347.02" y="74.62" width="78.49" height="33.39" rx="5.75" style="opacity:0.13"></rect><rect x="388.57" y="111.76" width="78.49" height="33.39" rx="5.75" style="opacity:0.13"></rect><rect x="61.15" y="111.76" width="78.49" height="33.39" rx="5.75" style="opacity:0.13"></rect><rect x="101.6" y="148.07" width="78.49" height="33.39" rx="5.75" style="opacity:0.13"></rect><rect x="143.15" y="111.76" width="78.49" height="33.39" rx="5.75" style="opacity:0.13"></rect><rect x="20.74" y="222.46" width="78.49" height="33.39" rx="5.75" style="opacity:0.13"></rect><rect x="61.18" y="258.78" width="78.49" height="33.39" rx="5.75" style="opacity:0.13"></rect><rect x="102.74" y="222.46" width="78.49" height="33.39" rx="5.75" style="opacity:0.13"></rect><rect x="143.15" y="185.56" width="78.49" height="33.39" rx="5.75" style="opacity:0.13"></rect><rect x="183.6" y="221.87" width="78.49" height="33.39" rx="5.75" style="opacity:0.13"></rect><rect x="225.15" y="185.56" width="78.49" height="33.39" rx="5.75" style="opacity:0.13"></rect><rect x="143.15" y="332.58" width="78.49" height="33.39" rx="5.75" style="opacity:0.13"></rect><rect x="183.6" y="368.89" width="78.49" height="33.39" rx="5.75" style="opacity:0.13"></rect><rect x="225.15" y="332.58" width="78.49" height="33.39" rx="5.75" style="opacity:0.13"></rect><rect x="306.57" y="259.36" width="78.49" height="33.39" rx="5.75" style="opacity:0.13"></rect><rect x="347.02" y="295.68" width="78.49" height="33.39" rx="5.75" style="opacity:0.13"></rect><rect x="388.57" y="259.36" width="78.49" height="33.39" rx="5.75" style="opacity:0.13"></rect><rect x="306.57" y="332.58" width="78.49" height="33.39" rx="5.75" style="opacity:0.13"></rect><rect x="347.02" y="368.89" width="78.49" height="33.39" rx="5.75" style="opacity:0.13"></rect><rect x="388.57" y="332.58" width="78.49" height="33.39" rx="5.75" style="opacity:0.13"></rect><rect x="143.15" y="259.36" width="78.49" height="33.39" rx="5.75" style="opacity:0.13"></rect><rect x="183.6" y="295.68" width="78.49" height="33.39" rx="5.75" style="opacity:0.13"></rect><rect x="225.15" y="259.36" width="78.49" height="33.39" rx="5.75" style="opacity:0.13"></rect></g><g id="freepik--oil-lamp-2--inject-65"><rect x="365.69" y="374.2" width="36.67" height="5.14" style="fill:#263238;stroke:#263238;stroke-linecap:round;stroke-linejoin:round"></rect><path d="M402.62,408.19H293.16L298,449.73a6.07,6.07,0,0,0,6,5.37h87.7a6.09,6.09,0,0,0,6-5.37Z" style="fill:#a8a8a8;stroke:#263238;stroke-linecap:round;stroke-linejoin:round"></path><polygon points="402.16 412.17 402.56 408.68 293.22 408.68 293.62 412.17 402.16 412.17" style="fill:#263238;stroke:#263238;stroke-linecap:round;stroke-linejoin:round"></polygon><path d="M378.86,385.51H316.92l1.08-2.23c1.18-2.44,5.77-4.18,11.07-4.18h37.64c5.3,0,9.89,1.74,11.07,4.18Z" style="fill:#a8a8a8;stroke:#263238;stroke-linecap:round;stroke-linejoin:round"></path><path d="M402.62,409.16H293.16l1.91-8.36a20.06,20.06,0,0,1,19.56-15.59h66.52a20.06,20.06,0,0,1,19.56,15.59Z" style="fill:#a8a8a8;stroke:#263238;stroke-linecap:round;stroke-linejoin:round"></path><path d="M304.3,394.23c.6,1.87,3.68,2.56,6.88,1.53s5.3-3.39,4.7-5.26S312.2,387.94,309,389,303.69,392.36,304.3,394.23Z" style="fill:#fff"></path><path d="M298.22,414.33l3.56,33.84a3.71,3.71,0,0,0,2.08,3l2.07,1.18-3.26-38Z" style="fill:#fff"></path><path d="M403.91,406.88h-112a1.75,1.75,0,0,0-1.75,1.75h0a1.75,1.75,0,0,0,1.75,1.75h112a1.75,1.75,0,0,0,1.74-1.75h0A1.75,1.75,0,0,0,403.91,406.88Z" style="fill:#a8a8a8;stroke:#263238;stroke-linecap:round;stroke-linejoin:round"></path><rect x="325.85" y="373.89" width="44.08" height="5.21" style="fill:#a8a8a8;stroke:#263238;stroke-linecap:round;stroke-linejoin:round"></rect><path d="M380.07,360.65H315.72l2.85,11.94c.21.88,1.73,1.55,3.54,1.55h51.56c1.81,0,3.34-.67,3.55-1.55Z" style="fill:#a8a8a8;stroke:#263238;stroke-linecap:round;stroke-linejoin:round"></path><polygon points="371.62 371.27 375.3 371.27 377.1 361.9 373.42 361.9 371.62 371.27" style="fill:#263238;stroke:#263238;stroke-linecap:round;stroke-linejoin:round"></polygon><polygon points="362.68 371.27 358.99 371.27 360.19 361.9 363.88 361.9 362.68 371.27" style="fill:#263238;stroke:#263238;stroke-linecap:round;stroke-linejoin:round"></polygon><polygon points="324.37 371.27 320.69 371.27 318.89 361.9 322.57 361.9 324.37 371.27" style="fill:#263238;stroke:#263238;stroke-linecap:round;stroke-linejoin:round"></polygon><polygon points="331.56 371.27 335.24 371.27 334.04 361.9 330.36 361.9 331.56 371.27" style="fill:#263238;stroke:#263238;stroke-linecap:round;stroke-linejoin:round"></polygon><rect x="346.05" y="361.9" width="3.68" height="9.37" style="fill:#263238;stroke:#263238;stroke-linecap:round;stroke-linejoin:round"></rect><path d="M398.16,280.44c-2.52-33.61-21-44.11-25.63-79.39a414.94,414.94,0,0,1-2.94-67.21H321.71a414.94,414.94,0,0,1-2.94,67.21c-4.62,35.28-23.1,45.78-25.62,79.39-1.82,24.2,9.44,36.42,15.88,41.36a11,11,0,0,1,4.28,8.76V356l32.34-.42L378,356V330.56a11,11,0,0,1,4.28-8.76C388.71,316.86,400,304.64,398.16,280.44Z" style="fill:#fff;stroke:#263238;stroke-linecap:round;stroke-linejoin:round"></path><path d="M304.6,302.84a42.63,42.63,0,0,0,5.57,10.78" style="fill:none;stroke:#263238;stroke-linecap:round;stroke-linejoin:round"></path><path d="M325.17,184.6c-.41,7.21-1.05,15-2,23-3.86,32-19.33,41.52-21.44,72a58.72,58.72,0,0,0,.71,14.66" style="fill:none;stroke:#263238;stroke-linecap:round;stroke-linejoin:round"></path><path d="M325.86,161.14c0,4-.07,8.6-.25,13.71" style="fill:none;stroke:#263238;stroke-linecap:round;stroke-linejoin:round"></path><path d="M386.46,355c-.6-2.42-4.07-16.2-7.11-22.59a2.2,2.2,0,0,0-4.15,0c-3,6.39-6.51,20.17-7.11,22.59H366.8c-.6-2.42-4.06-16.2-7.11-22.59a2.2,2.2,0,0,0-4.15,0c-3,6.39-6.51,20.17-7.11,22.59h-1.29c-.59-2.42-4.06-16.2-7.11-22.59a2.2,2.2,0,0,0-4.14,0c-3.05,6.39-6.52,20.17-7.11,22.59h-1.29c-.6-2.42-4.07-16.2-7.11-22.59a2.2,2.2,0,0,0-4.15,0c-3,6.39-6.51,20.17-7.11,22.59H309v5.92h77.52V355Z" style="fill:#a8a8a8;stroke:#263238;stroke-linecap:round;stroke-linejoin:round"></path><polygon points="380.07 360.65 315.72 360.65 316.49 363.9 379.29 363.9 380.07 360.65" style="fill:#263238;stroke:#263238;stroke-linecap:round;stroke-linejoin:round"></polygon><rect x="402.14" y="367.34" width="1.37" height="18.51" style="fill:#263238"></rect></g><g id="freepik--oil-lamp-1--inject-65"><circle cx="177.77" cy="321.86" r="144.43" transform="translate(-175.52 219.98) rotate(-45)" style="fill:#fff;opacity:0.2"></circle><circle cx="177.77" cy="321.86" r="116.36" transform="translate(-175.52 219.98) rotate(-45)" style="fill:#fff;opacity:0.5"></circle><circle cx="177.77" cy="321.86" r="81.89" transform="translate(-169.12 443.78) rotate(-80.45)" style="fill:#fff;opacity:0.8300000000000001"></circle><path d="M238.09,213.49,257,201.72a21,21,0,0,0,9.2-23.31l-23.3-86.79A49.62,49.62,0,0,0,193.38,45H171.66a49.63,49.63,0,0,0-49.53,46.64l-23.3,86.79A21,21,0,0,0,108,201.72L127,213.49" style="fill:none;stroke:#263238;stroke-linecap:round;stroke-linejoin:round;stroke-width:3px"></path><rect x="155.65" y="232.02" width="51.07" height="15.37" style="fill:#263238;stroke:#263238;stroke-linecap:round;stroke-linejoin:round"></rect><path d="M218.21,278c-1.14-3-7.9-23.38-11.72-30.56H156.7c-3.91,7.18-10.81,27.56-12,30.56-5.2,13.33-9.85,27.1-11.55,41.3-2.66,22.21,6.25,59.33,33,66.16H198v-.22c25.57-7.31,34.12-43.93,31.54-65.94C227.84,305.05,223.29,291.28,218.21,278Z" style="fill:#fff;stroke:#263238;stroke-linecap:round;stroke-linejoin:round"></path><path d="M154.48,424H134A42.47,42.47,0,0,1,91.69,377.4l14.5-157.91a42.32,42.32,0,0,1,10.31-23.83l1.23-1.4a42.45,42.45,0,0,1,32-14.51h3.94a10,10,0,0,1,0,20.05h-3.94a22.42,22.42,0,0,0-16.88,7.66l-1.22,1.4a22.33,22.33,0,0,0-5.45,12.58l-14.5,157.92A22.43,22.43,0,0,0,134,404h20.51a10,10,0,1,1,0,20Z" style="fill:#B186FF;stroke:#263238;stroke-linecap:round;stroke-linejoin:round"></path><path d="M149.38,419.45h-4.92A47.72,47.72,0,0,1,111,406a39.82,39.82,0,0,1-11.86-32.49l15-150.09a40,40,0,0,1,11.11-23.53l1.27-1.34A47.45,47.45,0,0,1,159,184.31a1.5,1.5,0,1,1,.11,3,44.48,44.48,0,0,0-30.38,13.3l-1.27,1.33a37.06,37.06,0,0,0-10.3,21.77L102.07,373.78a36.86,36.86,0,0,0,11,30.06,44.67,44.67,0,0,0,31.39,12.61h4.92a1.5,1.5,0,0,1,0,3Z" style="fill:#B186FF;stroke:#263238;stroke-linecap:round;stroke-linejoin:round"></path><path d="M139.85,202.08a22.4,22.4,0,0,1,8.66-2.25v-20a41.59,41.59,0,0,0-8.66,1.14Z" style="fill:#263238;stroke:#263238;stroke-linecap:round;stroke-linejoin:round"></path><path d="M204.76,382.68h30.86a13.79,13.79,0,0,0,6.39-1.57h0a13.69,13.69,0,0,0,6-6.27l3.07-6.44" style="fill:none;stroke:#263238;stroke-linecap:round;stroke-linejoin:round;stroke-width:2px"></path><path d="M207.39,424H227.9a42.46,42.46,0,0,0,42.27-46.62l-14.5-157.91a42.18,42.18,0,0,0-10.31-23.83l-1.22-1.4a42.49,42.49,0,0,0-32-14.51h-3.93a10,10,0,1,0,0,20.05h3.93a22.44,22.44,0,0,1,16.89,7.66l1.22,1.4a22.31,22.31,0,0,1,5.44,12.58l14.5,157.92A22.42,22.42,0,0,1,227.9,404H207.39a10,10,0,0,0,0,20Z" style="fill:#B186FF;stroke:#263238;stroke-linecap:round;stroke-linejoin:round"></path><path d="M211.43,419.45h4.92A47.69,47.69,0,0,0,249.85,406a39.83,39.83,0,0,0,11.87-32.49L246.67,223.39a40.14,40.14,0,0,0-11.11-23.53l-1.27-1.34a47.47,47.47,0,0,0-32.45-14.21,1.5,1.5,0,1,0-.11,3,44.5,44.5,0,0,1,30.39,13.3l1.27,1.33a37.1,37.1,0,0,1,10.29,21.77l15.05,150.08a36.8,36.8,0,0,1-11,30.06,44.63,44.63,0,0,1-31.38,12.61h-4.92a1.5,1.5,0,0,0,0,3Z" style="fill:#B186FF;stroke:#263238;stroke-linecap:round;stroke-linejoin:round"></path><path d="M213.8,199.86a22.36,22.36,0,0,1,10,3.19V181.38a42.33,42.33,0,0,0-10-1.58Z" style="fill:#263238;stroke:#263238;stroke-linecap:round;stroke-linejoin:round"></path><path d="M194.88,349.81c0,14-6.07,25.4-13.55,25.4s-13.55-11.37-13.55-25.4,6.07-25.4,13.55-25.4S194.88,335.78,194.88,349.81Z" style="fill:#B186FF;stroke:#263238;stroke-linecap:round;stroke-linejoin:round"></path><path d="M188.15,362.43c0,7.06-3.06,12.78-6.82,12.78s-6.82-5.72-6.82-12.78,3.06-12.78,6.82-12.78S188.15,355.37,188.15,362.43Z" style="fill:#fff;stroke:#263238;stroke-linecap:round;stroke-linejoin:round"></path><line x1="224.43" y1="284.55" x2="144.56" y2="372.11" style="fill:#fff;stroke:#263238;stroke-linecap:round;stroke-linejoin:round;stroke-width:2px"></line><line x1="139.75" y1="284.55" x2="219.62" y2="372.11" style="fill:#fff;stroke:#263238;stroke-linecap:round;stroke-linejoin:round;stroke-width:2px"></line><rect x="157.62" y="382.68" width="47.14" height="18" style="fill:#263238;stroke:#263238;stroke-linecap:round;stroke-linejoin:round"></rect><rect x="156.08" y="149.66" width="50.21" height="12.3" style="fill:#263238;stroke:#263238;stroke-linecap:round;stroke-linejoin:round"></rect><path d="M215.44,147.89l-26-11.41H171l-24.13,11.43a1.48,1.48,0,0,0,.63,2.82h67.3A1.48,1.48,0,0,0,215.44,147.89Z" style="fill:#B186FF;stroke:#263238;stroke-linecap:round;stroke-linejoin:round"></path><rect x="143.27" y="162.33" width="75.83" height="69.69" rx="3.89" style="fill:#B186FF;stroke:#263238;stroke-linecap:round;stroke-linejoin:round"></rect><line x1="210.29" y1="193.88" x2="216.22" y2="193.88" style="fill:none;stroke:#263238;stroke-linecap:round;stroke-linejoin:round"></line><line x1="146.65" y1="193.88" x2="204.24" y2="193.88" style="fill:none;stroke:#263238;stroke-linecap:round;stroke-linejoin:round"></line><polygon points="226.85 232.88 136.03 232.88 140.15 226.38 222.72 226.38 226.85 232.88" style="fill:#B186FF;stroke:#263238;stroke-linecap:round;stroke-linejoin:round"></polygon><rect x="144.22" y="146.87" width="73.78" height="4.52" style="fill:#B186FF;stroke:#263238;stroke-linecap:round;stroke-linejoin:round"></rect><path d="M194.26,113.35a14.45,14.45,0,1,0-22,12.32v7.75A1.62,1.62,0,0,0,173.9,135h11.82a1.61,1.61,0,0,0,1.62-1.62v-7.75A14.42,14.42,0,0,0,194.26,113.35Z" style="fill:none;stroke:#263238;stroke-linecap:round;stroke-linejoin:round"></path><rect x="172.39" y="134.55" width="14.95" height="1.93" style="fill:#263238;stroke:#263238;stroke-linecap:round;stroke-linejoin:round"></rect><polygon points="127.43 442.92 119.37 454.66 243.01 454.66 234.95 442.92 127.43 442.92" style="fill:#B186FF;stroke:#263238;stroke-linecap:round;stroke-linejoin:round"></polygon><path d="M235,442.92H127.43l9-30.9a16.43,16.43,0,0,1,15.77-11.85h58A16.41,16.41,0,0,1,226,412Z" style="fill:#B186FF;stroke:#263238;stroke-linecap:round;stroke-linejoin:round"></path><ellipse cx="180.11" cy="411.82" rx="13.18" ry="12.06" style="fill:#263238;stroke:#263238;stroke-linecap:round;stroke-linejoin:round"></ellipse><ellipse cx="180.11" cy="408.35" rx="13.18" ry="8.56" style="fill:#B186FF;stroke:#263238;stroke-linecap:round;stroke-linejoin:round"></ellipse><ellipse cx="180.11" cy="406.3" rx="13.18" ry="8.56" style="fill:#B186FF;stroke:#263238;stroke-linecap:round;stroke-linejoin:round"></ellipse><circle cx="208.97" cy="414.05" r="9.08" transform="translate(-233.79 275.94) rotate(-45.9)" style="fill:#263238;stroke:#263238;stroke-linecap:round;stroke-linejoin:round"></circle><circle cx="208.97" cy="409.45" r="9.08" style="fill:#B186FF;stroke:#263238;stroke-linecap:round;stroke-linejoin:round"></circle><path d="M157.62,382.68h-5.79a12.75,12.75,0,0,1-9.52-4.23c-3.11-3.49-8-8.26-13.57-10.88a13,13,0,0,1-7-8.1l-11.8-40.72a4,4,0,0,0-6.79-1.63h0a4,4,0,0,0-.35,5.06L113,336.65" style="fill:none;stroke:#263238;stroke-linecap:round;stroke-linejoin:round;stroke-width:2px"></path><path d="M115.32,340l12.24,1.53L124,401.74s-9.93-2.43-12.48-16.71l9.93,1.41L123,367.56l-2.7-1a4.14,4.14,0,0,1-2.72-4.15l.6-9.85a4.13,4.13,0,0,1,4.13-3.89h2.22l.57-5.29-4.9-.76-2.26,2.64-3,.19Z" style="fill:#B186FF;stroke:#263238;stroke-linecap:round;stroke-linejoin:round"></path></g><g id="freepik--Table--inject-65"><line x1="26.18" y1="454.81" x2="466.56" y2="454.81" style="fill:none;stroke:#263238;stroke-linecap:round;stroke-linejoin:round"></line></g></svg>
